<?xml version="1.0" encoding="UTF-8"?>
<svg version="1.1" xmlns="http://www.w3.org/2000/svg" width="1024" height="1024">
<path d="M0 0 C0 0.66 0 1.32 0 2 C0.70125 2.20625 1.4025 2.4125 2.125 2.625 C7.12823556 5.01785179 10.28153021 8.23648325 12.375 13.375 C12.58125 14.24125 12.7875 15.1075 13 16 C13.66 16 14.32 16 15 16 C18.58108922 27.22074623 17.72803395 37.54623687 16.5625 49.0625 C16.41256899 50.6112468 16.26347338 52.16007471 16.11523438 53.70898438 C15.75311914 57.47366099 15.37969973 61.23705796 15 65 C14.34 65 13.68 65 13 65 C13.03609375 66.25989746 13.0721875 67.51979492 13.109375 68.81787109 C13.10348888 77.22085286 12.08942102 85.56247465 11.25 93.9140625 C11.07021397 95.73818864 10.89085891 97.56235731 10.71191406 99.38656616 C10.24273367 104.15771969 9.76774878 108.92827763 9.29150391 113.69873047 C8.80537464 118.57875172 8.32480466 123.45932013 7.84375 128.33984375 C6.90123704 137.89376913 5.9525838 147.44707385 5 157 C4.34 157 3.68 157 3 157 C3.0163147 157.90117554 3.0163147 157.90117554 3.03295898 158.82055664 C3.09653283 165.08772656 2.72341428 171.20803134 2.0625 177.4375 C1.97548828 178.32115234 1.88847656 179.20480469 1.79882812 180.11523438 C1.44098202 183.6009205 1.1126093 186.6621721 0 190 C0.680625 190.185625 1.36125 190.37125 2.0625 190.5625 C6.13656879 192.55619324 9.13376943 195.49774708 12 199 C12 199.66 12 200.32 12 201 C12.87978516 201.14308594 12.87978516 201.14308594 13.77734375 201.2890625 C16.47599199 202.15225051 17.6290711 203.32478681 19.5625 205.375 C20.43068359 206.28378906 20.43068359 206.28378906 21.31640625 207.2109375 C21.87199219 207.80132812 22.42757813 208.39171875 23 209 C25.43549208 211.56367587 28.08886149 213.69859393 30.875 215.875 C34.48776431 218.739032 37.78259125 221.69321878 41 225 C41.99 225.804375 42.98 226.60875 44 227.4375 C47 230 47 230 49.4375 233 C51.50920101 235.42540606 52.88452294 236.72991666 55.4375 238.4375 C58.79635938 240.68888297 61.06817039 243.32213598 63.6015625 246.4453125 C65.02610818 248.18195632 65.02610818 248.18195632 67.5 249.5 C70.56284313 251.33770588 72.33626947 253.60863178 74.57421875 256.35546875 C76.18893481 258.21792206 78.01677377 259.55071929 80 261 C80 261.66 80 262.32 80 263 C80.57878906 263.26167969 81.15757812 263.52335937 81.75390625 263.79296875 C84.13570631 265.07292739 85.92316646 266.51356054 87.9375 268.3125 C88.98357422 269.24642578 88.98357422 269.24642578 90.05078125 270.19921875 C92.43402712 272.40097495 94.70589948 274.70589948 97 277 C98.0344358 277.86290945 99.07636167 278.71690684 100.125 279.5625 C103 282 103 282 104.5625 284.125 C105.91678906 286.14921229 105.91678906 286.14921229 108.25 287.25 C111.61385779 289.39063678 113.75410102 291.98509883 116.30078125 295.0234375 C118.08072079 297.16800431 118.08072079 297.16800431 120.6875 299.5 C128.51510327 307.96227381 128.52714486 318.12849536 128.13623047 329.05224609 C127.86324135 332.95530558 126.82636527 335.53620379 125 339 C124.50693359 340.00740234 124.50693359 340.00740234 124.00390625 341.03515625 C120.5967867 347.34245369 115.5458353 351.28084774 108.8515625 353.8125 C104.88576914 354.90651196 101.09468808 355.2047344 97 355 C97 355.66 97 356.32 97 357 C89.29879094 358.17957408 81.5967446 359.35350663 73.89359951 360.52036285 C70.31625561 361.06243004 66.73922195 361.60639253 63.1628418 362.15478516 C59.70759529 362.68453049 56.2516075 363.20916812 52.79506111 363.73036194 C50.84318238 364.0260109 48.89209399 364.32686271 46.94102478 364.62780762 C41.24255479 365.4829545 35.76548101 366.26903087 30 366 C30 366.66 30 367.32 30 368 C22.29636407 369.14639051 14.59159147 370.28489071 6.88598633 371.41796875 C4.26592751 371.80418159 1.64613207 372.1921856 -0.97338867 372.58203125 C-4.7432955 373.14276108 -8.51410917 373.69699736 -12.28515625 374.25 C-13.45208511 374.42499023 -14.61901398 374.59998047 -15.82130432 374.78027344 C-21.27007879 375.57320318 -26.49256605 376.22266315 -32 376 C-32 376.66 -32 377.32 -32 378 C-32.96421875 378.13277344 -33.9284375 378.26554687 -34.921875 378.40234375 C-36.18515625 378.57894531 -37.4484375 378.75554687 -38.75 378.9375 C-40.00296875 379.11152344 -41.2559375 379.28554688 -42.546875 379.46484375 C-43.68640625 379.64144531 -44.8259375 379.81804687 -46 380 C-46.77988281 380.09925781 -47.55976563 380.19851563 -48.36328125 380.30078125 C-50.18277222 380.86480402 -50.18277222 380.86480402 -50.87109375 382.828125 C-51.05800781 383.62734375 -51.24492187 384.4265625 -51.4375 385.25 C-53.12097159 391.70330778 -55.54413917 397.80695965 -58 404 C-58.66 404 -59.32 404 -60 404 C-60.0928125 404.81210937 -60.185625 405.62421875 -60.28125 406.4609375 C-61.16233114 410.79930444 -62.74924981 414.57507184 -64.5 418.625 C-65.13794788 420.1161071 -65.77345109 421.60826299 -66.40625 423.1015625 C-66.68791016 423.75463379 -66.96957031 424.40770508 -67.25976562 425.08056641 C-68.01267873 427.03287606 -68.5353208 428.96164502 -69 431 C-69.66 431 -70.32 431 -71 431 C-71.15855469 431.57105469 -71.31710937 432.14210938 -71.48046875 432.73046875 C-73.56953464 439.99026126 -76.21646302 446.98064587 -79 454 C-79.66 454 -80.32 454 -81 454 C-81.09152344 454.63292969 -81.18304688 455.26585937 -81.27734375 455.91796875 C-82.28634287 460.22121363 -83.92836994 464.21261331 -85.5625 468.3125 C-86.0565332 469.56643555 -86.0565332 469.56643555 -86.56054688 470.84570312 C-87.36998877 472.89863546 -88.18323457 474.94997286 -89 477 C-89.66 477 -90.32 477 -91 477 C-91.25523437 478.28777344 -91.51046875 479.57554687 -91.7734375 480.90234375 C-92.90756156 486.00590204 -94.66637762 490.72565815 -96.625 495.5625 C-96.94984375 496.38041016 -97.2746875 497.19832031 -97.609375 498.04101562 C-98.40021796 500.02975306 -99.19924219 502.01523399 -100 504 C-100.66 504 -101.32 504 -102 504 C-102.11472656 504.70125 -102.22945313 505.4025 -102.34765625 506.125 C-103.06370202 509.28074664 -104.16014782 512.02835576 -105.4375 515 C-107.27980424 519.28387516 -107.27980424 519.28387516 -108.9140625 523.6484375 C-110.18658836 526.40405106 -111.59667188 527.7157212 -113.9375 529.625 C-116.84061717 532.01055261 -116.84061717 532.01055261 -119.546875 534.609375 C-124.70080361 539.54162926 -132.84279756 540.30539231 -139.6484375 540.2265625 C-148.91422646 539.33384529 -156.71496965 536.98336705 -163 530 C-163 529.34 -163 528.68 -163 528 C-163.59554688 527.78472656 -164.19109375 527.56945312 -164.8046875 527.34765625 C-167.75656153 525.53556276 -168.59185774 523.5158249 -170.125 520.4375 C-171.83292255 516.5091874 -171.83292255 516.5091874 -175 514 C-175.96142578 512.35766602 -175.96142578 512.35766602 -176.9453125 510.25390625 C-177.29980469 509.49916016 -177.65429688 508.74441406 -178.01953125 507.96679688 C-178.38433594 507.17337891 -178.74914062 506.37996094 -179.125 505.5625 C-179.49753906 504.77294922 -179.87007812 503.98339844 -180.25390625 503.16992188 C-183 497.27034684 -183 497.27034684 -183 495 C-183.66 495 -184.32 495 -185 495 C-186.50647598 492.04492094 -188.00406365 489.08542659 -189.5 486.125 C-189.92925781 485.28324219 -190.35851562 484.44148438 -190.80078125 483.57421875 C-191.20683594 482.76855469 -191.61289063 481.96289062 -192.03125 481.1328125 C-192.40830078 480.38918457 -192.78535156 479.64555664 -193.17382812 478.87939453 C-194 477 -194 477 -194 475 C-194.66 475 -195.32 475 -196 475 C-196.96345444 473.12762629 -197.92053102 471.2519701 -198.875 469.375 C-199.40867188 468.33085938 -199.94234375 467.28671875 -200.4921875 466.2109375 C-201.91454291 463.18198375 -203.0122001 460.19356666 -204 457 C-204.66 457 -205.32 457 -206 457 C-207.31746333 454.41909233 -208.62909617 451.83549542 -209.9375 449.25 C-210.31068359 448.52039063 -210.68386719 447.79078125 -211.06835938 447.0390625 C-211.42607422 446.33007812 -211.78378906 445.62109375 -212.15234375 444.890625 C-212.6472229 443.91657715 -212.6472229 443.91657715 -213.15209961 442.92285156 C-214.01452116 440.96706921 -214.54374179 439.08459306 -215 437 C-215.66 437 -216.32 437 -217 437 C-218.34070318 434.39939496 -219.67273354 431.79495084 -221 429.1875 C-221.57234375 428.08051758 -221.57234375 428.08051758 -222.15625 426.95117188 C-222.5171875 426.23896484 -222.878125 425.52675781 -223.25 424.79296875 C-223.58515625 424.1383667 -223.9203125 423.48376465 -224.265625 422.80932617 C-225 421 -225 421 -225 418 C-225.99 417.67 -226.98 417.34 -228 417 C-229.07495117 415.44946289 -229.07495117 415.44946289 -230.04296875 413.47265625 C-230.39423828 412.76302734 -230.74550781 412.05339844 -231.10742188 411.32226562 C-231.46384766 410.57654297 -231.82027344 409.83082031 -232.1875 409.0625 C-232.73954102 407.9497168 -232.73954102 407.9497168 -233.30273438 406.81445312 C-236 401.29481679 -236 401.29481679 -236 399 C-236.66 399 -237.32 399 -238 399 C-238.49209961 397.3284082 -238.49209961 397.3284082 -238.99414062 395.62304688 C-241.85669816 387.43745502 -241.85669816 387.43745502 -248.15869141 381.92285156 C-254.45563874 380.08482369 -260.98424893 379.84594047 -267.5 379.5 C-269.4875528 379.33896092 -271.47456179 379.1710544 -273.4609375 378.99609375 C-278.30462531 378.58442259 -283.14627393 378.26696765 -288 378 C-288 377.34 -288 376.68 -288 376 C-288.87261475 375.96914307 -289.74522949 375.93828613 -290.64428711 375.90649414 C-305.01298728 375.23700393 -319.24725715 373.42796878 -333.51745605 371.68640137 C-336.96365568 371.26696598 -340.41057057 370.85349268 -343.85742188 370.43945312 C-350.57230882 369.63199483 -357.28640671 368.81814312 -364 368 C-364 367.34 -364 366.68 -364 366 C-364.89976562 365.96261719 -365.79953125 365.92523437 -366.7265625 365.88671875 C-374.99345034 365.46426256 -383.16722997 364.70666035 -391.375 363.625 C-392.27686035 363.51115967 -393.1787207 363.39731934 -394.10791016 363.2800293 C-404.15871061 361.90009251 -413.76135531 360.26701398 -420.25 352 C-420.95640625 351.113125 -421.6628125 350.22625 -422.390625 349.3125 C-424 347 -424 347 -424 345 C-424.66 345 -425.32 345 -426 345 C-430.66608247 334.98042113 -431.89469585 324.33839892 -428.6875 313.625 C-428.130625 312.42875 -427.57375 311.2325 -427 310 C-426.01 309.67 -425.02 309.34 -424 309 C-422.93283296 307.20067421 -422.93283296 307.20067421 -422 305 C-420.5 302.25 -420.5 302.25 -419 300 C-418.34 300 -417.68 300 -417 300 C-416.6596875 299.1646875 -416.6596875 299.1646875 -416.3125 298.3125 C-413.8844832 294.03456563 -410.12512277 291.0920674 -406.375 288 C-403.5039972 285.57971377 -401.8784375 283.26684782 -400 280 C-398.10422159 277.83118828 -396.13437381 275.95272497 -394 274 C-393.34 274 -392.68 274 -392 274 C-391.731875 273.41734375 -391.46375 272.8346875 -391.1875 272.234375 C-389.98519009 269.97213399 -388.66174087 268.19423682 -387 266.25 C-386.484375 265.63640625 -385.96875 265.0228125 -385.4375 264.390625 C-384 263 -384 263 -382 263 C-381.79375 262.46375 -381.5875 261.9275 -381.375 261.375 C-379.46749574 258.08021991 -376.95180616 255.40636372 -374 253 C-373.34 253 -372.68 253 -372 253 C-371.73445313 252.42894531 -371.46890625 251.85789062 -371.1953125 251.26953125 C-367.67138735 244.57867991 -362.52022689 239.24238493 -356.69921875 234.5078125 C-354.76054426 232.91618686 -354.76054426 232.91618686 -353 230 C-352.34 230 -351.68 230 -351 230 C-350.60554688 229.13181641 -350.60554688 229.13181641 -350.203125 228.24609375 C-347.50496943 223.20895268 -343.28564917 218.89205622 -338.8125 215.375 C-335.88970897 213.13376215 -335.88970897 213.13376215 -334.0625 210.0625 C-331.89619764 206.84586922 -329.65101998 204.87409013 -326.67578125 202.453125 C-324.46857009 200.53917965 -322.77963084 198.30692886 -321 196 C-320.34 195.67 -319.68 195.34 -319 195 C-319 192.03 -319 189.06 -319 186 C-319.66 186 -320.32 186 -321 186 C-322.28687743 179.95045918 -323.5684829 173.89983466 -324.84521484 167.84814453 C-325.28028955 165.78956958 -325.71680353 163.73129828 -326.15478516 161.67333984 C-326.78406311 158.7153054 -327.40815773 155.75621777 -328.03125 152.796875 C-328.22811401 151.87694763 -328.42497803 150.95702026 -328.62780762 150.00921631 C-328.80799438 149.1486261 -328.98818115 148.28803589 -329.17382812 147.40136719 C-329.33371216 146.64635925 -329.49359619 145.89135132 -329.6583252 145.11346436 C-330 143 -330 143 -330 139 C-330.66 139 -331.32 139 -332 139 C-333.1458231 133.68114098 -334.28495449 128.36090893 -335.41796875 123.03930664 C-335.80416229 121.22999637 -336.19216616 119.42107151 -336.58203125 117.61254883 C-337.14281509 115.00962484 -337.69702638 112.40537416 -338.25 109.80078125 C-338.42499023 108.99538406 -338.59998047 108.18998688 -338.78027344 107.36018372 C-339.59156323 103.50847013 -340.22226555 99.96257794 -340 96 C-340.66 96 -341.32 96 -342 96 C-343.28726709 89.80810275 -344.56837833 83.61495494 -345.84521484 77.42089844 C-346.28032003 75.31383424 -346.71683439 73.20706052 -347.15478516 71.10058594 C-347.78398268 68.07301871 -348.40810767 65.04444354 -349.03125 62.015625 C-349.22811401 61.07382385 -349.42497803 60.13202271 -349.62780762 59.16168213 C-349.80799438 58.28107117 -349.98818115 57.40046021 -350.17382812 56.49316406 C-350.33371216 55.72039124 -350.49359619 54.94761841 -350.6583252 54.15142822 C-351 52 -351 52 -351 48 C-351.66 48 -352.32 48 -353 48 C-355.05865064 38.00083973 -355.58071912 29.9542023 -353 20 C-352.34 20 -351.68 20 -351 20 C-350.7215625 18.7625 -350.7215625 18.7625 -350.4375 17.5 C-347.58896096 10.56442669 -342.7136467 5.64632577 -335.8671875 2.609375 C-333.50520862 1.83851997 -331.46177949 1.69227756 -329 2 C-329 1.34 -329 0.68 -329 0 C-323.72 0 -318.44 0 -313 0 C-313 0.66 -313 1.32 -313 2 C-311.55947266 2.12181641 -311.55947266 2.12181641 -310.08984375 2.24609375 C-305.20349125 2.94414411 -301.00270233 4.99088264 -296.5625 7.0625 C-295.32209961 7.62807617 -295.32209961 7.62807617 -294.05664062 8.20507812 C-292.03393021 9.12874358 -290.01537743 10.06046954 -288 11 C-288 11.66 -288 12.32 -288 13 C-287.15179688 13.26554687 -286.30359375 13.53109375 -285.4296875 13.8046875 C-281.87259054 15.04440466 -278.53406601 16.52482616 -275.125 18.125 C-273.97257813 18.66382813 -272.82015625 19.20265625 -271.6328125 19.7578125 C-270.32957031 20.37269531 -270.32957031 20.37269531 -269 21 C-269 21.66 -269 22.32 -269 23 C-268.278125 23.103125 -267.55625 23.20625 -266.8125 23.3125 C-263.69202345 24.07528316 -261.75537002 25.34677799 -259 27 C-256.38413699 28.02430829 -253.75673296 28.9976096 -251.109375 29.9375 C-249 31 -249 31 -248 34 C-247.278125 34.12632812 -246.55625 34.25265625 -245.8125 34.3828125 C-239.6701498 35.73071713 -233.08701624 38.26952142 -228 42 C-228 42.66 -228 43.32 -228 44 C-227.33613281 44.09152344 -226.67226562 44.18304688 -225.98828125 44.27734375 C-222.11659955 45.21363279 -218.76260551 46.83481743 -215.1875 48.5625 C-214.49462891 48.89185547 -213.80175781 49.22121094 -213.08789062 49.56054688 C-211.38955052 50.36872251 -209.69444231 51.18368377 -208 52 C-208 52.66 -208 53.32 -208 54 C-206.783125 54.37125 -205.56625 54.7425 -204.3125 55.125 C-197.97615532 57.22024496 -192.01375958 60.12789535 -186 63 C-186 63.66 -186 64.32 -186 65 C-185.30648437 65.10054688 -184.61296875 65.20109375 -183.8984375 65.3046875 C-179.37185356 66.3905796 -175.46832178 68.68824385 -171.3515625 70.8203125 C-166.28891033 72.60227166 -162.77605693 71.82943927 -157.98046875 69.58984375 C-157.05878906 69.04457031 -156.13710938 68.49929688 -155.1875 67.9375 C-150.17647059 65 -150.17647059 65 -148 65 C-148 64.34 -148 63.68 -148 63 C-145.60835832 61.67933245 -143.21219784 60.36838208 -140.8125 59.0625 C-139.80219727 58.50272461 -139.80219727 58.50272461 -138.77148438 57.93164062 C-135.19379242 55.99445132 -132.1013655 54.50172044 -128 54 C-128 53.34 -128 52.68 -128 52 C-125.5664433 50.6589995 -123.12864699 49.32705144 -120.6875 48 C-119.99720703 47.6184375 -119.30691406 47.236875 -118.59570312 46.84375 C-113.33984375 44 -113.33984375 44 -110 44 C-109.67 43.01 -109.34 42.02 -109 41 C-106.697027 39.64034337 -104.46858094 38.45473268 -102.0625 37.3125 C-101.41603516 36.99216797 -100.76957031 36.67183594 -100.10351562 36.34179688 C-95.29509262 34 -95.29509262 34 -93 34 C-92.67 33.01 -92.34 32.02 -92 31 C-90.35766602 29.92504883 -90.35766602 29.92504883 -88.25390625 28.95703125 C-87.12178711 28.43012695 -87.12178711 28.43012695 -85.96679688 27.89257812 C-85.17337891 27.53615234 -84.37996094 27.17972656 -83.5625 26.8125 C-82.77294922 26.44447266 -81.98339844 26.07644531 -81.16992188 25.69726562 C-75.2999913 23 -75.2999913 23 -73 23 C-72.67 22.01 -72.34 21.02 -72 20 C-69.697027 18.64034337 -67.46858094 17.45473268 -65.0625 16.3125 C-64.41603516 15.99216797 -63.76957031 15.67183594 -63.10351562 15.34179688 C-58.29509262 13 -58.29509262 13 -56 13 C-56 12.34 -56 11.68 -56 11 C-53.23456804 9.48987869 -50.46183193 7.99369852 -47.6875 6.5 C-46.90181641 6.07074219 -46.11613281 5.64148438 -45.30664062 5.19921875 C-44.54931641 4.79316406 -43.79199219 4.38710937 -43.01171875 3.96875 C-42.31522217 3.59169922 -41.61872559 3.21464844 -40.90112305 2.82617188 C-39 2 -39 2 -36 2 C-36 1.34 -36 0.68 -36 0 C-24.67942762 -6.05518988 -11.43046543 -5.71523271 0 0 Z " fill="#000000" transform="translate(430,244)"/>
<path d="M0 0 C1.23049072 0.13012482 1.23049072 0.13012482 2.48583984 0.26287842 C13.00737461 1.38118075 23.50986266 2.61632509 34 4 C34 4.66 34 5.32 34 6 C35.26674561 5.96463135 36.53349121 5.9292627 37.83862305 5.89282227 C43.21847945 5.89708663 48.30460428 6.73470463 53.58203125 7.71484375 C54.55863205 7.89004044 55.53523285 8.06523712 56.54142761 8.2457428 C59.63315624 8.80236809 62.72276606 9.36991908 65.8125 9.9375 C67.90547522 10.31513954 69.99857325 10.69209912 72.09179688 11.06835938 C75.91454323 11.75899699 79.73714366 12.45031802 83.55786133 13.15209961 C84.3212532 13.29199814 85.08464508 13.43189667 85.87117004 13.57603455 C87.93421193 13.98689803 89.96419548 14.47164707 92 15 C92 15.66 92 16.32 92 17 C93.20914062 17.103125 94.41828125 17.20625 95.6640625 17.3125 C102.01566598 18.01906302 108.16515891 19.52577121 114.375 21 C115.54933594 21.27328125 116.72367188 21.5465625 117.93359375 21.828125 C126.51170367 23.83723456 126.51170367 23.83723456 130 25 C130 25.66 130 26.32 130 27 C130.65846924 27.10231934 131.31693848 27.20463867 131.99536133 27.31005859 C139.12502332 28.50094995 145.83273072 30.35392492 152.6875 32.625 C153.68716797 32.94984375 154.68683594 33.2746875 155.71679688 33.609375 C158.14666931 34.3999555 160.57425147 35.19687405 163 36 C163 36.66 163 37.32 163 38 C164.134375 38.20625 165.26875 38.4125 166.4375 38.625 C174.17356862 40.31648767 181.57584774 43.28945991 189 46 C189 46.66 189 47.32 189 48 C189.55945313 48.14695312 190.11890625 48.29390625 190.6953125 48.4453125 C198.44549772 50.61337074 205.66537146 53.73429363 213 57 C213 57.66 213 58.32 213 59 C213.67804688 59.26941406 214.35609375 59.53882813 215.0546875 59.81640625 C218.42069922 61.16906083 221.77701436 62.54072892 225.125 63.9375 C226.34445312 64.44152344 227.56390625 64.94554687 228.8203125 65.46484375 C231.69832763 66.85435228 232.86491582 67.79749211 235 70 C238.34235873 71.89007439 241.74819599 73.62572973 245.1640625 75.37890625 C248 77 248 77 249 79 C250.36448824 79.84454641 251.76725855 80.62800533 253.1875 81.375 C258.0357161 84.00271776 262.55714561 86.52014934 266.4375 90.5 C268.58322495 92.5933902 269.99869668 93.64718463 272.5625 95 C276.05786902 97.03366925 277.57523836 98.84780987 280 102 C281.175625 102.680625 281.175625 102.680625 282.375 103.375 C285.40332439 105.249677 287.10224458 107.38130299 289.3359375 110.11328125 C291.07891557 112.0894747 292.92451194 113.73928421 294.9375 115.4375 C298.46708735 118.43291608 301.47807392 121.66517093 304.45703125 125.203125 C305.96239123 127.0058581 305.96239123 127.0058581 307.59375 128.57421875 C309.92901347 130.94191643 312 133.60521967 312 137 C312.99 137.33 313.98 137.66 315 138 C316.75390625 140.6875 316.75390625 140.6875 318.5625 144 C320.56923901 148.2118786 320.56923901 148.2118786 324 151 C325.5865964 153.93067664 326.78338212 157.04962536 328.0625 160.125 C328.42666016 160.96804688 328.79082031 161.81109375 329.16601562 162.6796875 C331.19097725 167.50066822 332.54074767 171.78571969 333 177 C333.66 177 334.32 177 335 177 C341.18214552 200.21064457 341.18214552 224.78935543 335 248 C334.34 248 333.68 248 333 248 C332.814375 249.155 332.62875 250.31 332.4375 251.5 C331.36288176 256.37471751 329.54179905 260.81268741 327.5625 265.375 C327.26206787 266.07689453 326.96163574 266.77878906 326.65209961 267.50195312 C325.13106277 270.92521625 323.71252051 273.44994817 321 276 C319.12547935 279.11863458 317.3784435 282.29456373 315.62109375 285.48046875 C315.08613281 286.31191406 314.55117188 287.14335938 314 288 C313.34 288 312.68 288 312 288 C311.731875 288.5775 311.46375 289.155 311.1875 289.75 C309.97070811 292.05550043 308.69666121 294.02056192 307 296 C306.34 296 305.68 296 305 296 C304.731875 295.195625 304.46375 294.39125 304.1875 293.5625 C303.795625 292.716875 303.40375 291.87125 303 291 C302.01 290.67 301.02 290.34 300 290 C298.68359375 288.29296875 298.68359375 288.29296875 297.4375 286.1875 C296.81681641 285.15689453 296.81681641 285.15689453 296.18359375 284.10546875 C295.05535572 282.09847107 294.00899537 280.06913796 293 278 C292.34 278 291.68 278 291 278 C289.44921875 276.35546875 289.44921875 276.35546875 287.6875 274.1875 C284.99978342 271.00907998 282.62946301 269.05996549 279 267 C278.401875 266.21625 277.80375 265.4325 277.1875 264.625 C274.71124873 261.65349848 272.23436797 260.1893341 268.9375 258.25 C267 257 267 257 264.5625 254.5 C261.13301888 251.15416476 257.2397375 249.17067171 253 247 C253 246.34 253 245.68 253 245 C252.15179687 244.74476563 251.30359375 244.48953125 250.4296875 244.2265625 C246.76247907 242.91505516 243.53425443 241.25356877 240.125 239.375 C238.97257812 238.74335937 237.82015625 238.11171875 236.6328125 237.4609375 C235.76398438 236.97882813 234.89515625 236.49671875 234 236 C234 235.34 234 234.68 234 234 C232.741875 233.608125 231.48375 233.21625 230.1875 232.8125 C224.59787448 230.96115906 219.31731793 228.51454474 214 226 C214 225.34 214 224.68 214 224 C213.46375 223.85304688 212.9275 223.70609375 212.375 223.5546875 C204.07165239 221.17840052 196.05763589 218.08909366 188 215 C188 214.34 188 213.68 188 213 C187.12585449 212.86859619 186.25170898 212.73719238 185.35107422 212.60180664 C182.25748483 212.04624072 179.38260212 211.29799504 176.3828125 210.37109375 C174.85527344 209.90219727 174.85527344 209.90219727 173.296875 209.42382812 C172.25015625 209.09833984 171.2034375 208.77285156 170.125 208.4375 C169.05507813 208.10814453 167.98515625 207.77878906 166.8828125 207.43945312 C164.25413033 206.62972513 161.62659234 205.81647645 159 205 C159 204.34 159 203.68 159 203 C158.11570312 202.9071875 157.23140625 202.814375 156.3203125 202.71875 C150.38297906 201.87013264 144.64453138 200.09801259 138.875 198.5 C136.56029356 197.86313602 134.24520316 197.22766551 131.9296875 196.59375 C130.91116699 196.31208984 129.89264648 196.03042969 128.84326172 195.74023438 C126.23960186 195.0623796 123.64342626 194.49704415 121 194 C121 193.34 121 192.68 121 192 C119.86691406 191.90847656 118.73382812 191.81695313 117.56640625 191.72265625 C109.92780572 190.87392286 102.43931251 189.0674225 94.9375 187.4375 C93.38875922 187.10441132 91.83993172 186.77172562 90.29101562 186.43945312 C86.5263273 185.63094689 82.76285631 184.81698826 79 184 C79 183.34 79 182.68 79 182 C78.33441574 181.94630249 77.66883148 181.89260498 76.983078 181.83728027 C70.2519374 181.26406959 63.60225399 180.4281029 56.92578125 179.40625 C55.4127668 179.17887146 55.4127668 179.17887146 53.8691864 178.94689941 C50.68316358 178.46759648 47.497809 177.98402191 44.3125 177.5 C41.11636783 177.01675428 37.92010003 176.53442918 34.72367859 176.05310059 C32.74563012 175.75498762 30.76776393 175.45566165 28.79011536 175.15490723 C23.53401285 174.36003217 18.27798293 173.63408483 13 173 C13 172.34 13 171.68 13 171 C11.9996875 170.96261719 10.999375 170.92523438 9.96875 170.88671875 C-0.49383473 170.43924543 -10.8906953 169.58012517 -21.3125 168.5625 C-36.85775903 167.05014401 -52.40792264 165.93019564 -68 165 C-68.85754883 164.94602051 -69.71509766 164.89204102 -70.59863281 164.83642578 C-89.70243293 163.63992038 -108.8671473 163.4330653 -128 163 C-128 162.34 -128 161.68 -128 161 C-128.75023437 161.0928125 -129.50046875 161.185625 -130.2734375 161.28125 C-136.51416368 161.72140197 -140.37703183 161.39168518 -145.375 157.4375 C-149.28781611 153.90780072 -152.62433886 150.03432673 -156 146 C-156.99 145.67 -157.98 145.34 -159 145 C-160.33333333 143.33333333 -161.66666667 141.66666667 -163 140 C-166.15991372 137.04978307 -169.40231131 134.39845913 -173 132 C-173.268125 131.360625 -173.53625 130.72125 -173.8125 130.0625 C-174.89543022 127.73072876 -174.89543022 127.73072876 -177.75 126.6875 C-181.35419021 124.81609354 -183.11734365 122.84432863 -185.60546875 119.71875 C-187.76213223 117.06067736 -189.63621005 115.20787997 -192.625 113.5 C-195 112 -195 112 -196 109 C-197.98600337 107.6459068 -199.98817543 106.31542376 -202 105 C-204.875 102.375 -204.875 102.375 -207 100 C-207 99.34 -207 98.68 -207 98 C-207.66 98 -208.32 98 -209 98 C-209 97.34 -209 96.68 -209 96 C-209.721875 95.79375 -210.44375 95.5875 -211.1875 95.375 C-214.22970565 93.88769946 -215.56506493 92.18076201 -217.59765625 89.53125 C-219.98507739 86.92437232 -222.87167337 85.59483319 -226 84 C-226 83.34 -226 82.68 -226 82 C-225.34 82 -224.68 82 -224 82 C-224.01740234 81.35708008 -224.03480469 80.71416016 -224.05273438 80.05175781 C-224.19419377 70.2270657 -223.34129819 60.52750357 -222.5 50.75 C-222.35501437 49.02217348 -222.21047982 47.29430906 -222.06640625 45.56640625 C-221.71613017 41.37714945 -221.35977559 37.18845123 -221 33 C-220.34 33 -219.68 33 -219 33 C-219.01160156 32.14535156 -219.02320313 31.29070312 -219.03515625 30.41015625 C-219.04417969 29.30542969 -219.05320312 28.20070313 -219.0625 27.0625 C-219.07410156 25.96035156 -219.08570313 24.85820312 -219.09765625 23.72265625 C-219 21 -219 21 -218 20 C-217.7905639 18.02490127 -217.63196178 16.04428318 -217.5 14.0625 C-217.11004127 8.22008253 -217.11004127 8.22008253 -216 6 C-213.03 6 -210.06 6 -207 6 C-207 5.34 -207 4.68 -207 4 C-195.68214049 2.51686074 -184.34947877 1.21419323 -173 0 C-172.25357239 -0.08159363 -171.50714478 -0.16318726 -170.73809814 -0.24725342 C-114.97621539 -6.29195688 -55.76551882 -5.97888304 0 0 Z " fill="#000000" transform="translate(685,334)"/>
</svg>
