<?xml version="1.0" encoding="UTF-8"?>
<svg version="1.1" xmlns="http://www.w3.org/2000/svg" width="1024" height="1024">
<path d="M0 0 C1.3984375 1.3125 1.3984375 1.3125 3.0859375 3.625 C3.0859375 4.285 3.0859375 4.945 3.0859375 5.625 C3.69179688 5.86476562 4.29765625 6.10453125 4.921875 6.3515625 C7.5852739 7.91883333 8.3325906 9.25219876 9.7109375 12 C10.11570312 12.77085937 10.52046875 13.54171875 10.9375 14.3359375 C14.73620121 25.21521103 13.95024263 35.6289933 12.78515625 46.8515625 C12.62639543 48.49184317 12.46901715 50.13225818 12.3129425 51.77279663 C11.90126468 56.06105023 11.47100737 60.34723502 11.03662109 64.63323975 C10.5996074 68.97834365 10.18048068 73.32516821 9.75976562 77.671875 C9.07253856 84.74757133 8.37826203 91.82251334 7.66076183 98.89521217 C7.35778464 101.88340941 7.06365342 104.87162415 6.79336548 107.86297607 C6.66905655 109.22896942 6.66905655 109.22896942 6.54223633 110.62255859 C6.44341911 111.76777481 6.44341911 111.76777481 6.34260559 112.93612671 C6.0859375 114.625 6.0859375 114.625 5.0859375 115.625 C4.81488389 117.46456146 4.60585138 119.31329878 4.42163086 121.16357422 C4.30158188 122.34925995 4.1815329 123.53494568 4.05784607 124.75656128 C3.93176468 126.05119293 3.80568329 127.34582458 3.67578125 128.6796875 C3.54292441 130.01956479 3.40982871 131.35941841 3.27650452 132.69924927 C2.99704084 135.51861743 2.72092054 138.33828911 2.44702148 141.15820312 C2.09842208 144.743869 1.7410797 148.32859749 1.3810339 151.91312981 C1.10349627 154.68743785 0.83108553 157.46223232 0.56009102 160.23718643 C0.36810159 162.19308023 0.17164928 164.14853432 -0.0249176 166.10397339 C-2.13839591 178.73056539 -2.13839591 178.73056539 1.0859375 190.1875 C1.7459375 190.661875 2.4059375 191.13625 3.0859375 191.625 C3.0859375 192.285 3.0859375 192.945 3.0859375 193.625 C3.63378906 193.85445312 4.18164062 194.08390625 4.74609375 194.3203125 C7.76686016 196.00467975 9.99804485 198.13565681 12.5234375 200.5 C13.04421875 200.9846875 13.565 201.469375 14.1015625 201.96875 C15.20588214 202.99663702 16.30854845 204.02630279 17.40966797 205.05761719 C20.12224762 207.59399373 22.85515395 210.10825861 25.5859375 212.625 C26.66935821 213.62490533 27.75269151 214.62490539 28.8359375 215.625 C29.63837891 216.36556641 29.63837891 216.36556641 30.45703125 217.12109375 C31.55378391 218.13368314 32.65013046 219.14671255 33.74609375 220.16015625 C35.35790791 221.65003648 36.97171059 223.13773476 38.5859375 224.625 C39.524375 225.49125 40.4628125 226.3575 41.4296875 227.25 C44.06098895 229.66147869 44.06098895 229.66147869 46.9296875 231.8125 C47.99703125 232.7096875 47.99703125 232.7096875 49.0859375 233.625 C49.0859375 234.285 49.0859375 234.945 49.0859375 235.625 C49.66472656 235.88667969 50.24351562 236.14835938 50.83984375 236.41796875 C53.22164381 237.69792739 55.00910396 239.13856054 57.0234375 240.9375 C58.06951172 241.87142578 58.06951172 241.87142578 59.13671875 242.82421875 C61.51996462 245.02597495 63.79183698 247.33089948 66.0859375 249.625 C67.0759375 250.45 68.0659375 251.275 69.0859375 252.125 C71.92826637 254.49360739 74.47193973 257.01100223 77.0859375 259.625 C78.0965625 260.45 79.1071875 261.275 80.1484375 262.125 C83.0859375 264.625 83.0859375 264.625 84.9609375 267.0625 C87.39706527 270.00018348 90.07159939 271.93434767 93.14453125 274.1640625 C95.71679338 276.09972857 97.86684002 278.29494765 100.0859375 280.625 C104.07491603 284.70916023 108.07214261 288.65649845 112.4609375 292.3125 C115.4716011 294.87713936 116.85192473 296.81077872 118.0859375 300.625 C119.0759375 300.955 120.0659375 301.285 121.0859375 301.625 C126.56806991 310.57242681 126.49166447 322.56843681 124.49609375 332.5859375 C121.37405128 341.70748093 114.25550268 349.03700306 105.84057617 353.50708008 C100.24063583 355.77971385 94.28558141 356.45198987 88.3359375 357.3125 C87.05460938 357.51166016 85.77328125 357.71082031 84.453125 357.91601562 C79.3965716 358.69808905 74.33516299 359.44382073 69.27148438 360.17822266 C67.5012793 360.43998291 67.5012793 360.43998291 65.6953125 360.70703125 C64.63795898 360.86018799 63.58060547 361.01334473 62.49121094 361.17114258 C60.14278891 361.38023763 60.14278891 361.38023763 59.0859375 362.625 C57.22669747 362.97403057 55.35655308 363.26515953 53.48388672 363.53295898 C52.28529022 363.70661484 51.08669373 363.88027069 49.85177612 364.05918884 C49.20677029 364.15065626 48.56176445 364.24212368 47.89721298 364.33636284 C45.87831711 364.62284022 43.86024634 364.914585 41.84231567 365.20777893 C36.82426374 365.93581495 31.80500446 366.65537254 26.7855835 367.37390137 C22.5544954 367.9797572 18.32400211 368.589484 14.0942421 369.20454597 C12.11463724 369.49081377 10.13421245 369.77139305 8.15377808 370.05186462 C2.29560291 370.90259503 -3.23279252 371.93856707 -8.9140625 373.625 C-12.16766395 374.22490064 -15.4378477 374.68061955 -18.71484375 375.1328125 C-19.63242966 375.26315887 -20.55001556 375.39350525 -21.4954071 375.52780151 C-23.42215174 375.80061364 -25.34922785 376.0710939 -27.27661133 376.33935547 C-30.23526034 376.75121077 -33.19288022 377.16989736 -36.15039062 377.58984375 C-38.02598612 377.8545605 -39.90163535 378.11889695 -41.77734375 378.3828125 C-42.66376053 378.50778107 -43.55017731 378.63274963 -44.4634552 378.76150513 C-45.28158188 378.87517426 -46.09970856 378.98884338 -46.94262695 379.10595703 C-47.66319778 379.20651398 -48.38376862 379.30707092 -49.12617493 379.41067505 C-50.9140625 379.625 -50.9140625 379.625 -52.9140625 379.625 C-53.01332031 380.29789063 -53.11257813 380.97078125 -53.21484375 381.6640625 C-54.07857903 385.32166778 -55.55001691 388.59603561 -57.1015625 392 C-59.55232414 397.47858294 -61.90150243 402.97838892 -64.1015625 408.5625 C-65.89777391 413.11228259 -67.76489387 417.60932901 -69.7890625 422.0625 C-71.37757619 425.68078118 -72.85856672 429.34146639 -74.3515625 433 C-76.32607015 437.83657559 -78.33653171 442.63643219 -80.5390625 447.375 C-82.81988264 452.28811093 -84.73873125 457.30325018 -86.60546875 462.38671875 C-87.5976688 464.84204365 -88.6429058 467.11379129 -89.84765625 469.4609375 C-92.01729142 473.71943706 -93.73142977 478.09340844 -95.4140625 482.5625 C-97.44540247 487.87469835 -99.50584434 493.13324542 -101.89453125 498.296875 C-103.01742321 500.86102675 -104.01778527 503.46498952 -105.02148438 506.07763672 C-110.7943339 521.00552051 -117.4522457 531.35888873 -131.98828125 538.66796875 C-139.72839792 542.01207595 -146.6600013 541.32416547 -154.4765625 538.5 C-161.98870973 535.36033044 -169.14353988 532.16604524 -172.9140625 524.625 C-173.69136719 523.7278125 -174.46867187 522.830625 -175.26953125 521.90625 C-177.95653408 518.73502384 -179.69721098 515.39012434 -181.4765625 511.625 C-183.66887323 507.00747717 -186.0770012 502.86950968 -188.9140625 498.625 C-190.09354631 496.3504697 -191.23874349 494.05787868 -192.3515625 491.75 C-194.58643494 487.17514087 -196.95353018 482.80236219 -199.73828125 478.5390625 C-201.09135137 476.3363902 -202.21865609 474.07335728 -203.3515625 471.75 C-205.05325428 468.26126513 -206.88579192 464.93455661 -208.9140625 461.625 C-210.89175208 458.39427046 -212.69249298 455.15517219 -214.3515625 451.75 C-216.74355906 446.84214946 -219.4668586 442.17009251 -222.265625 437.484375 C-223.93872476 434.58222092 -225.41619857 431.62072786 -226.9140625 428.625 C-228.23429181 426.28265768 -229.5638574 423.94978923 -230.9140625 421.625 C-233.39348346 417.3559218 -235.70824697 413.04215942 -237.9140625 408.625 C-239.53370867 405.63119534 -241.19183337 402.65922898 -242.8515625 399.6875 C-243.28146484 398.91470703 -243.71136719 398.14191406 -244.15429688 397.34570312 C-246.14601831 393.77027603 -248.15626973 390.21183277 -250.23046875 386.68359375 C-251.9140625 383.625 -251.9140625 383.625 -251.9140625 381.625 C-252.88384537 381.57384033 -253.85362823 381.52268066 -254.85279846 381.4699707 C-264.57930083 380.92727081 -274.21045884 380.00092804 -283.87890625 378.8125 C-285.33334554 378.63668497 -286.78781916 378.46115375 -288.24232483 378.28588867 C-291.25005571 377.92241266 -294.2573685 377.55570439 -297.2644043 377.18652344 C-301.12384141 376.71294631 -304.98422107 376.24759774 -308.8449316 375.78453064 C-311.82974049 375.42566389 -314.81403683 375.06267722 -317.79818916 374.69839478 C-319.22345313 374.52489675 -320.64887236 374.35266938 -322.07444572 374.18173218 C-324.04875543 373.94435622 -326.02232596 373.70085607 -327.99584961 373.45703125 C-329.11785263 373.32014893 -330.23985565 373.1832666 -331.39585876 373.04223633 C-333.9140625 372.625 -333.9140625 372.625 -334.9140625 371.625 C-336.95797341 371.30435544 -339.01146622 371.0446327 -341.06689453 370.80883789 C-342.03048134 370.69639488 -342.03048134 370.69639488 -343.01353455 370.5816803 C-344.41345808 370.4188362 -345.81361341 370.25797569 -347.21396255 370.09883308 C-349.43440733 369.84623055 -351.6541339 369.58801923 -353.87374878 369.32823181 C-360.18672948 368.59052966 -366.50100483 367.86413741 -372.81542969 367.13891602 C-376.67508482 366.69523439 -380.53404536 366.24585838 -384.39266586 365.79327202 C-386.57175818 365.53953639 -388.75154803 365.29254064 -390.931427 365.04566956 C-392.28261476 364.88766019 -393.63376235 364.72930681 -394.98486328 364.57055664 C-396.1565506 364.43589493 -397.32823792 364.30123322 -398.53543091 364.16249084 C-402.11008817 363.59381518 -405.45418167 362.67897525 -408.9140625 361.625 C-409.68492187 361.42519531 -410.45578125 361.22539063 -411.25 361.01953125 C-421.3574082 358.13446646 -427.22171293 351.98030357 -432.6015625 343.17578125 C-435.51144349 337.52056611 -435.20220921 331.73764518 -435.2890625 325.5 C-435.32644531 324.50484375 -435.36382812 323.5096875 -435.40234375 322.484375 C-435.5285346 311.74413194 -431.50210268 304.74425061 -424.24023438 297.05859375 C-423.57572266 296.37925781 -422.91121094 295.69992187 -422.2265625 295 C-421.21239258 293.92298828 -421.21239258 293.92298828 -420.17773438 292.82421875 C-416.53181701 289.01505135 -416.53181701 289.01505135 -414.9140625 287.625 C-414.2540625 287.625 -413.5940625 287.625 -412.9140625 287.625 C-412.68976563 287.08359375 -412.46546875 286.5421875 -412.234375 285.984375 C-410.50106123 282.88697407 -408.20275575 280.44536299 -405.7890625 277.875 C-405.29696289 277.34422852 -404.80486328 276.81345703 -404.29785156 276.26660156 C-400.86366444 272.58216789 -397.32877689 269.01270077 -393.73828125 265.48046875 C-391.90016412 263.61086353 -390.18420562 261.67649393 -388.4765625 259.6875 C-385.90740979 256.69698284 -383.22088994 253.89383316 -380.4140625 251.125 C-375.78012461 246.54613438 -371.52959358 241.71608219 -367.32421875 236.74609375 C-366.81761719 236.14925781 -366.31101562 235.55242187 -365.7890625 234.9375 C-365.35335937 234.41800781 -364.91765625 233.89851562 -364.46875 233.36328125 C-361.93525576 230.53060553 -359.20387916 227.89855473 -356.50048828 225.22924805 C-350.40726613 219.20868608 -344.44134486 213.17838676 -338.9140625 206.625 C-337.73134992 205.2251079 -336.54379078 203.82929692 -335.3515625 202.4375 C-334.50078125 201.43203125 -334.50078125 201.43203125 -333.6328125 200.40625 C-331.96278333 198.6754925 -330.39780786 197.66524722 -328.3515625 196.4375 C-325.65032799 193.92223604 -325.65032799 193.92223604 -325.84765625 191.0625 C-326.34776611 187.52189922 -327.09612493 184.10647786 -327.9140625 180.625 C-328.24290748 179.07882826 -328.56827409 177.53191368 -328.890625 175.984375 C-329.54800447 172.88273915 -330.21408178 169.78373049 -330.9140625 166.69140625 C-331.0584375 166.05146729 -331.2028125 165.41152832 -331.3515625 164.75219727 C-331.91548831 162.50893626 -331.91548831 162.50893626 -332.859375 159.91601562 C-334.12951657 155.95270352 -334.9662308 151.97797123 -335.7890625 147.90234375 C-336.13798658 146.21288355 -336.48694597 144.52343064 -336.8359375 142.83398438 C-337.37702371 140.19225392 -337.9165662 137.55021538 -338.45507812 134.90795898 C-338.97921663 132.34277748 -339.50891489 129.77878899 -340.0390625 127.21484375 C-340.19745605 126.42826889 -340.35584961 125.64169403 -340.51904297 124.83128357 C-341.33768718 120.88068637 -342.41188256 117.37548791 -343.9140625 113.625 C-344.62320995 110.82802097 -345.18652133 108.00446179 -345.75390625 105.17578125 C-345.92152969 104.36312302 -346.08915314 103.55046478 -346.26185608 102.71318054 C-346.79615176 100.12216548 -347.32457078 97.53000983 -347.8515625 94.9375 C-350.54281979 81.29774518 -350.54281979 81.29774518 -354.22387695 67.90454102 C-355.61207388 63.31961185 -356.54289679 58.62009376 -357.5390625 53.9375 C-357.755625 52.94427734 -357.9721875 51.95105469 -358.1953125 50.92773438 C-361.08190879 37.51931642 -362.81803352 24.98933221 -356.11328125 12.40234375 C-354.18563731 9.54541218 -351.64422801 7.68655355 -348.9140625 5.625 C-347.769375 4.325625 -347.769375 4.325625 -346.6015625 3 C-339.54038226 -3.24011277 -330.45279665 -3.07936255 -321.453125 -2.80078125 C-314.55575303 -2.34337658 -307.56359984 -0.23149442 -302.0625 4.07421875 C-298.92923547 6.33586605 -295.47093584 7.64941305 -291.9140625 9.125 C-287.48726925 10.96147763 -283.74624066 12.72677629 -279.9140625 15.625 C-277.18749362 17.03354025 -274.39577631 18.29459831 -271.6015625 19.5625 C-267.43908704 21.45918548 -263.31163118 23.34060553 -259.3515625 25.63671875 C-255.70690304 27.74482291 -252.00000954 29.63732296 -248.2265625 31.5 C-246.81639783 32.20050388 -245.40624166 32.90102487 -243.99609375 33.6015625 C-243.30596191 33.94348633 -242.61583008 34.28541016 -241.90478516 34.63769531 C-239.07102543 36.04310669 -236.24252814 37.45897019 -233.4140625 38.875 C-231.97160156 39.59623047 -231.97160156 39.59623047 -230.5 40.33203125 C-177.9140625 66.625 -177.9140625 66.625 -174.7265625 68.4375 C-171.35935932 69.85920801 -170.36994791 69.65779334 -166.9140625 68.625 C-164.76888452 67.42468914 -162.66681622 66.14563983 -160.6015625 64.8125 C-156.49360182 62.20272999 -152.40186793 59.77821763 -148.0078125 57.68359375 C-144.21971228 55.76834159 -140.59499366 53.56407344 -136.94140625 51.40625 C-133.61566841 49.44942877 -130.26730964 47.53407445 -126.9140625 45.625 C-125.74727593 44.9585432 -124.58060868 44.29187747 -123.4140625 43.625 C-116.4140625 39.625 -116.4140625 39.625 -114.65820312 38.62207031 C-112.94056126 37.64014851 -111.22417654 36.65602869 -109.5078125 35.671875 C-105.49230382 33.37793741 -101.45568586 31.12254332 -97.4140625 28.875 C-96.24254639 28.22301636 -96.24254639 28.22301636 -95.04736328 27.55786133 C-89.99040974 24.75237554 -84.90388963 22.01076041 -79.7890625 19.3125 C-75.37456787 16.9816743 -71.07110828 14.56246831 -66.8828125 11.84375 C-63.49278874 9.74516386 -59.95339503 7.91721862 -56.4296875 6.0546875 C-53.95209718 4.72762316 -53.95209718 4.72762316 -52.0546875 3.171875 C-49.05402426 1.00351251 -45.76542883 -0.46422824 -42.4140625 -2 C-41.41826172 -2.46792969 -41.41826172 -2.46792969 -40.40234375 -2.9453125 C-27.64091739 -8.85479537 -11.70196879 -8.40631227 0 0 Z " fill="#FFFFFF" transform="translate(434.9140625,245.375)"/>
<path d="M0 0 C4.5565678 0.0170898 9.112609 0.00690259 13.66915894 -0.01034164 C33.37809525 -0.07309792 52.96314165 0.4282222 72.62451172 1.85205078 C73.55164474 1.91883656 74.47877777 1.98562233 75.43400574 2.05443192 C78.02748334 2.24528122 80.62003467 2.44505827 83.21240234 2.65039062 C83.98771805 2.70967617 84.76303375 2.76896172 85.56184387 2.83004379 C90.84982967 3.27268123 90.84982967 3.27268123 91.96826172 4.39111328 C94.85544375 4.79048796 97.73110505 5.13335261 100.62841797 5.44189453 C102.4628359 5.64567488 104.29722612 5.84970488 106.1315918 6.05395508 C107.578358 6.21291763 107.578358 6.21291763 109.05435181 6.37509155 C136.11353472 9.36175327 136.11353472 9.36175327 149.28076172 11.57861328 C150.67016968 11.81028198 150.67016968 11.81028198 152.08764648 12.04663086 C155.40189707 12.62997188 158.51090768 13.23357977 161.69995117 14.33203125 C165.62072947 15.60254266 169.54855893 16.4223884 173.58544922 17.23095703 C175.26126101 17.57520942 176.93704129 17.91961523 178.61279297 18.26416016 C181.22771496 18.79739242 183.84302573 19.32856564 186.45898438 19.85668945 C189.0023285 20.37163636 191.54392455 20.89461473 194.08544922 21.41845703 C194.85654022 21.5716893 195.62763123 21.72492157 196.42208862 21.88279724 C200.82698239 22.79541104 204.89896959 24.03000726 209.08364868 25.67634583 C211.8943202 26.7423347 214.76552409 27.4961843 217.67138672 28.25830078 C218.89986328 28.58701172 220.12833984 28.91572266 221.39404297 29.25439453 C223.92698988 29.9245 226.46083689 30.59121309 228.99560547 31.25439453 C235.99499619 33.13406372 242.5910944 35.33637814 249.23486328 38.23095703 C253.86781284 40.19735363 258.65269076 41.65299367 263.45263672 43.15087891 C267.88364942 44.57457577 271.93258528 46.28779606 276.06103516 48.43383789 C278.94916188 49.88344681 281.94888343 50.99536706 284.96826172 52.14111328 C296.95420946 56.8257459 308.24507327 62.83874665 319.38989258 69.24584961 C323.25292645 71.46264376 327.15033872 73.49152679 331.18896484 75.37255859 C333.12930566 76.48330254 334.43135721 77.78015421 335.96826172 79.39111328 C337.21541757 80.12068569 338.48990748 80.8044839 339.78076172 81.45361328 C349.09728049 86.48422945 357.59402236 93.18221807 365.87841797 99.73876953 C367.35473637 100.90602688 368.84295842 102.05830368 370.33935547 103.19970703 C374.50528763 106.38059119 378.35162276 109.57898033 381.96826172 113.39111328 C382.50708984 113.90931641 383.04591797 114.42751953 383.60107422 114.96142578 C385.09478361 116.39955529 386.53577113 117.89199523 387.96826172 119.39111328 C387.96826172 120.05111328 387.96826172 120.71111328 387.96826172 121.39111328 C388.80357422 121.70048828 388.80357422 121.70048828 389.65576172 122.01611328 C392.20065668 123.52929407 393.73524396 125.32545777 395.55810547 127.63330078 C397.0855682 129.5373402 398.70557444 131.33123069 400.34326172 133.14111328 C404.2849406 137.63001006 407.61913705 142.45310156 410.96826172 147.39111328 C411.46068359 148.06400391 411.95310547 148.73689453 412.46044922 149.43017578 C420.27417947 160.36939814 425.69115536 173.41247425 428.96826172 186.39111328 C429.13376022 187.0248587 429.29925873 187.65860413 429.46977234 188.31155396 C430.87801369 194.0733791 431.30321481 199.52694528 431.33935547 205.44580078 C431.34838394 206.38682648 431.35741241 207.32785217 431.36671448 208.2973938 C431.38114539 210.28237774 431.39008577 212.26740848 431.39379883 214.25244141 C431.40559458 217.22400875 431.4547662 220.19342641 431.50537109 223.16455078 C431.63771697 238.99150182 429.44092005 254.20690072 421.96826172 268.39111328 C421.35788692 269.63932279 420.74863099 270.8880797 420.14013672 272.13720703 C414.55977341 283.3483703 407.88307629 294.47629871 398.96826172 303.39111328 C397.00732422 303.28564453 397.00732422 303.28564453 394.96826172 302.39111328 C393.61669922 300.52783203 393.61669922 300.52783203 392.34326172 298.07861328 C386.52280643 287.77063139 378.25675656 278.6287897 368.96826172 271.32861328 C368.14326172 270.67763672 367.31826172 270.02666016 366.46826172 269.35595703 C365.64326172 268.70755859 364.81826172 268.05916016 363.96826172 267.39111328 C362.30135016 266.05808612 360.63466443 264.72477649 358.96826172 263.39111328 C349.67164481 255.97012961 339.37522661 250.09745556 328.96826172 244.39111328 C328.23422119 243.98787842 327.50018066 243.58464355 326.74389648 243.16918945 C317.60331218 238.18094119 308.45897126 233.5146056 298.75146484 229.72363281 C295.44458246 228.43183016 292.27486427 227.06299094 289.12841797 225.41455078 C284.45668846 223.03007548 279.58251247 221.47465809 274.59326172 219.89111328 C269.30315918 218.19735238 264.07349312 216.47490146 258.93310547 214.36376953 C254.00837845 212.35377571 249.01335509 210.80096537 243.90576172 209.32861328 C242.22696763 208.8391273 240.5485787 208.34824957 238.87060547 207.85595703 C238.04737793 207.61466064 237.22415039 207.37336426 236.37597656 207.12475586 C234.1059308 206.43306173 231.86977973 205.67779011 229.62841797 204.89892578 C224.00231606 202.99885822 218.24575529 201.68130788 212.46826172 200.32861328 C211.39189453 200.07273437 210.31552734 199.81685547 209.20654297 199.55322266 C203.81240216 198.27531719 198.41707894 197.0315297 192.98583984 195.9206543 C190.96826172 195.39111328 190.96826172 195.39111328 188.67163086 194.42211914 C185.37311798 193.16413848 182.15884838 192.57319558 178.68310547 191.95361328 C177.63770348 191.76520874 177.63770348 191.76520874 176.57118225 191.57299805 C174.35023204 191.1740604 172.12804378 190.78255581 169.90576172 190.39111328 C168.44018248 190.12856342 166.97468681 189.8655466 165.50927734 189.60205078 C158.24399168 188.30088478 150.97695339 187.04095319 143.68139648 185.91845703 C140.96826172 185.39111328 140.96826172 185.39111328 137.58837891 184.40429688 C133.93826937 183.38271915 130.41998987 182.76526615 126.66748047 182.24267578 C125.96938263 182.14528107 125.27128479 182.04788635 124.55203247 181.94754028 C122.25413389 181.63036182 119.95511931 181.32252426 117.65576172 181.01611328 C116.46845963 180.85520203 116.46845963 180.85520203 115.25717163 180.69104004 C99.61292141 178.58114203 83.92662232 177.03371606 68.20336914 175.64746094 C67.33267792 175.56962372 66.46198669 175.4917865 65.56491089 175.41159058 C63.92806522 175.26604065 62.29088549 175.12418463 60.65335083 174.98660278 C55.1906976 174.50233122 55.1906976 174.50233122 52.96826172 173.39111328 C51.02739415 173.17885968 49.08039374 173.02166454 47.13232422 172.89111328 C45.93438232 172.80917725 44.73644043 172.72724121 43.50219727 172.64282227 C42.21224854 172.5597583 40.9222998 172.47669434 39.59326172 172.39111328 C38.24926211 172.30273606 36.90526801 172.21427513 35.5612793 172.12573242 C31.69740059 171.87340356 27.83289378 171.63163308 23.96826172 171.39111328 C23.08283691 171.3342334 22.19741211 171.27735352 21.28515625 171.21875 C12.28523659 170.65059757 3.28339339 170.36227889 -5.73095703 170.14501953 C-6.61004227 170.12378525 -7.4891275 170.10255096 -8.39485168 170.08067322 C-12.85352429 169.97446935 -17.31223089 169.87442605 -21.77124023 169.78344727 C-49.27328807 169.19878102 -49.27328807 169.19878102 -55.03173828 163.39111328 C-56.3809336 161.73726095 -57.71307556 160.06941129 -59.03173828 158.39111328 C-61.09206422 156.55790989 -63.19227324 154.78822562 -65.32470703 153.03955078 C-67.03173828 151.39111328 -67.03173828 151.39111328 -68.03173828 148.39111328 C-69.42392578 147.98892578 -69.42392578 147.98892578 -70.84423828 147.57861328 C-74.94348845 146.05144165 -75.73514671 144.02120964 -78.03173828 140.39111328 C-80.5293381 138.6922888 -80.5293381 138.6922888 -83.03173828 137.39111328 C-84.05193401 136.41172538 -85.05323633 135.41215879 -86.03173828 134.39111328 C-86.75361328 133.89611328 -87.47548828 133.40111328 -88.21923828 132.89111328 C-89.11642578 132.14861328 -89.11642578 132.14861328 -90.03173828 131.39111328 C-90.03173828 130.40111328 -90.03173828 129.41111328 -90.03173828 128.39111328 C-91.11455078 128.08173828 -91.11455078 128.08173828 -92.21923828 127.76611328 C-95.83994713 125.99598895 -97.4998793 123.49264053 -100.03173828 120.39111328 C-101.68200769 119.36427899 -103.34417695 118.35543404 -105.03173828 117.39111328 C-105.03173828 116.73111328 -105.03173828 116.07111328 -105.03173828 115.39111328 C-105.65048828 115.10236328 -106.26923828 114.81361328 -106.90673828 114.51611328 C-109.03173828 113.39111328 -109.03173828 113.39111328 -111.03173828 111.39111328 C-111.03173828 110.40111328 -111.03173828 109.41111328 -111.03173828 108.39111328 C-111.60923828 108.28798828 -112.18673828 108.18486328 -112.78173828 108.07861328 C-115.38834986 107.28214863 -117.00526938 106.20046051 -119.03173828 104.39111328 C-119.03173828 103.73111328 -119.03173828 103.07111328 -119.03173828 102.39111328 C-119.89992188 102.01986328 -119.89992188 102.01986328 -120.78564453 101.64111328 C-124.12743518 99.78133414 -126.35680177 97.05347006 -128.93408203 94.26611328 C-131.19753584 92.24291434 -133.17080632 91.34641578 -136.03173828 90.39111328 C-135.70173828 88.74111328 -135.37173828 87.09111328 -135.03173828 85.39111328 C-134.37173828 85.39111328 -133.71173828 85.39111328 -133.03173828 85.39111328 C-133.04635353 84.40463303 -133.04635353 84.40463303 -133.06126404 83.39822388 C-133.11896751 76.43232177 -132.77042155 69.5729314 -132.19189453 62.63330078 C-132.10548203 61.56363068 -132.01906952 60.49396057 -131.93003845 59.39187622 C-131.7481141 57.15478882 -131.56397168 54.91788076 -131.37768555 52.68115234 C-131.09217384 49.24124038 -130.81642362 45.80063624 -130.54150391 42.35986328 C-130.36304706 40.18012825 -130.18403117 38.0004389 -130.00439453 35.82080078 C-129.9220607 34.78865448 -129.83972687 33.75650818 -129.75489807 32.69308472 C-129.63488686 31.27492966 -129.63488686 31.27492966 -129.51245117 29.828125 C-129.44361221 28.99304413 -129.37477325 28.15796326 -129.30384827 27.2975769 C-129.03173828 25.39111328 -129.03173828 25.39111328 -128.03173828 24.39111328 C-127.78694697 21.35388771 -127.64765463 18.31770722 -127.50830078 15.27392578 C-126.97357715 12.03928611 -126.53990878 11.36737979 -124.03173828 9.39111328 C-122.04525757 8.84725952 -122.04525757 8.84725952 -119.75976562 8.60742188 C-118.90232758 8.5107724 -118.04488953 8.41412292 -117.16146851 8.31454468 C-116.23951691 8.22379669 -115.31756531 8.13304871 -114.36767578 8.03955078 C-113.41986237 7.93518707 -112.47204895 7.83082336 -111.49551392 7.72329712 C-108.4671081 7.39185231 -105.43719649 7.07818518 -102.40673828 6.76611328 C-99.36955729 6.44388631 -96.33283445 6.1179755 -93.29653931 5.7875061 C-91.40631781 5.58277655 -89.5155062 5.38341426 -87.62411499 5.18978882 C-86.77298126 5.09944366 -85.92184753 5.00909851 -85.04492188 4.91601562 C-83.91599014 4.79968277 -83.91599014 4.79968277 -82.76425171 4.68099976 C-81.0062848 4.55923307 -81.0062848 4.55923307 -80.03173828 3.39111328 C-77.44272816 3.08870545 -74.87358789 2.84902789 -72.27587891 2.65039062 C-71.46406662 2.58608982 -70.65225433 2.52178902 -69.81584167 2.4555397 C-67.10711029 2.24603239 -64.39778734 2.04725042 -61.68798828 1.85205078 C-60.28357231 1.75034639 -60.28357231 1.75034639 -58.8507843 1.64658737 C-39.22800691 0.25726424 -19.66571611 -0.0744248 0 0 Z " fill="#FFFFFF" transform="translate(593.03173828125,328.60888671875)"/>
</svg>
